<svg width="219" height="48" viewBox="0 0 219 48" fill="none" xmlns="http://www.w3.org/2000/svg">
<path d="M87.543 12.4521V29.8085C87.543 30.8918 87.3553 31.8715 86.9799 32.7473C86.628 33.6232 86.1118 34.3723 85.4315 34.9947C84.7745 35.617 83.9651 36.1011 83.0032 36.4468C82.0413 36.7926 80.962 36.9654 79.7655 36.9654C77.4897 36.9654 75.7184 36.3892 74.4515 35.2367C73.1845 34.0612 72.3751 32.5053 72.0232 30.5691L76.3167 29.7048C76.5278 30.742 76.9032 31.5488 77.4428 32.125C78.0059 32.6782 78.7684 32.9548 79.7303 32.9548C80.6453 32.9548 81.3961 32.6782 81.9826 32.125C82.5926 31.5488 82.8976 30.6729 82.8976 29.4973V16.1862H75.1553V12.4521H87.543Z" fill="#FCFDFF"/>
<path d="M100.174 37C98.8604 37 97.6756 36.781 96.6199 36.3431C95.5876 35.9051 94.696 35.2713 93.9453 34.4415C93.2179 33.6117 92.6549 32.6206 92.256 31.4681C91.8572 30.2926 91.6578 28.9787 91.6578 27.5266C91.6578 26.0745 91.8572 24.7722 92.256 23.6197C92.6549 22.4672 93.2179 21.4876 93.9453 20.6809C94.696 19.8511 95.5876 19.2172 96.6199 18.7793C97.6756 18.3413 98.8604 18.1223 100.174 18.1223C101.488 18.1223 102.673 18.3413 103.729 18.7793C104.784 19.2172 105.676 19.8511 106.403 20.6809C107.154 21.4876 107.729 22.4672 108.128 23.6197C108.527 24.7722 108.726 26.0745 108.726 27.5266C108.726 28.9787 108.527 30.2926 108.128 31.4681C107.729 32.6206 107.154 33.6117 106.403 34.4415C105.676 35.2713 104.784 35.9051 103.729 36.3431C102.673 36.781 101.488 37 100.174 37ZM100.174 33.4388C101.371 33.4388 102.309 33.0816 102.99 32.367C103.67 31.6525 104.01 30.6037 104.01 29.2207V25.867C104.01 24.5071 103.67 23.4699 102.99 22.7553C102.309 22.0408 101.371 21.6835 100.174 21.6835C99.0012 21.6835 98.0745 22.0408 97.3941 22.7553C96.7137 23.4699 96.3735 24.5071 96.3735 25.867V29.2207C96.3735 30.6037 96.7137 31.6525 97.3941 32.367C98.0745 33.0816 99.0012 33.4388 100.174 33.4388Z" fill="#FCFDFF"/>
<path d="M112.72 11H117.224V21.5106H117.365C117.693 20.4734 118.315 19.6551 119.23 19.0559C120.145 18.4335 121.213 18.1223 122.433 18.1223C124.779 18.1223 126.562 18.9406 127.782 20.5771C129.025 22.1906 129.647 24.5071 129.647 27.5266C129.647 30.5691 129.025 32.9087 127.782 34.5452C126.562 36.1817 124.779 37 122.433 37C121.213 37 120.145 36.6888 119.23 36.0665C118.339 35.4441 117.717 34.6144 117.365 33.5771H117.224V36.5851H112.72V11ZM120.99 33.3351C122.163 33.3351 123.113 32.9548 123.84 32.1941C124.568 31.4335 124.931 30.4078 124.931 29.117V26.0053C124.931 24.7145 124.568 23.6888 123.84 22.9282C123.113 22.1445 122.163 21.7527 120.99 21.7527C119.91 21.7527 119.007 22.0177 118.28 22.5479C117.576 23.078 117.224 23.781 117.224 24.6569V30.3963C117.224 31.3413 117.576 32.0674 118.28 32.5745C119.007 33.0816 119.91 33.3351 120.99 33.3351Z" fill="#FCFDFF"/>
<path d="M139.839 37C138.079 37 136.601 36.7119 135.405 36.1356C134.208 35.5363 133.153 34.7181 132.238 33.6809L134.983 31.0532C135.663 31.8138 136.402 32.4131 137.2 32.8511C138.021 33.289 138.959 33.508 140.015 33.508C141.094 33.508 141.868 33.3236 142.338 32.9548C142.83 32.586 143.077 32.0789 143.077 31.4335C143.077 30.9034 142.901 30.4885 142.549 30.1888C142.22 29.8661 141.646 29.6472 140.824 29.5319L138.994 29.2899C137 29.0363 135.475 28.4832 134.419 27.6303C133.387 26.7544 132.871 25.4867 132.871 23.8271C132.871 22.9512 133.035 22.1676 133.364 21.4761C133.692 20.7615 134.161 20.1622 134.771 19.6782C135.381 19.1711 136.109 18.7908 136.953 18.5372C137.821 18.2606 138.783 18.1223 139.839 18.1223C140.731 18.1223 141.517 18.1915 142.197 18.3298C142.901 18.445 143.534 18.6294 144.097 18.883C144.66 19.1135 145.177 19.4131 145.646 19.7819C146.115 20.1277 146.573 20.5195 147.018 20.9574L144.379 23.5505C143.839 22.9973 143.194 22.5363 142.443 22.1676C141.693 21.7988 140.871 21.6144 139.98 21.6144C138.994 21.6144 138.279 21.7872 137.833 22.133C137.411 22.4787 137.2 22.9282 137.2 23.4814C137.2 24.0807 137.376 24.5417 137.728 24.8644C138.103 25.164 138.725 25.383 139.593 25.5213L141.458 25.7633C145.423 26.3165 147.405 28.0913 147.405 31.0878C147.405 31.9637 147.218 32.7704 146.842 33.508C146.49 34.2225 145.986 34.8449 145.329 35.375C144.672 35.8821 143.874 36.2855 142.936 36.5851C142.021 36.8617 140.989 37 139.839 37Z" fill="#FCFDFF"/>
<path d="M161.202 37C159.583 37 158.116 36.7465 156.803 36.2394C155.512 35.7092 154.398 34.9255 153.459 33.8883C152.544 32.8511 151.84 31.5718 151.348 30.0505C150.855 28.5062 150.609 26.7199 150.609 24.6915C150.609 22.6631 150.855 20.8652 151.348 19.2979C151.84 17.7074 152.544 16.3821 153.459 15.3218C154.398 14.2385 155.512 13.4202 156.803 12.867C158.116 12.3138 159.583 12.0372 161.202 12.0372C163.407 12.0372 165.237 12.4982 166.692 13.4202C168.146 14.3422 169.308 15.7367 170.176 17.6037L166.199 19.6782C165.847 18.5949 165.272 17.7305 164.474 17.0851C163.677 16.4167 162.586 16.0824 161.202 16.0824C159.465 16.0824 158.081 16.6587 157.049 17.8112C156.04 18.9637 155.536 20.5771 155.536 22.6516V26.4548C155.536 28.5523 156.04 30.1658 157.049 31.2952C158.081 32.4016 159.465 32.9548 161.202 32.9548C162.586 32.9548 163.712 32.586 164.58 31.8484C165.472 31.1108 166.117 30.2004 166.516 29.117L170.281 31.2952C169.39 33.0931 168.205 34.4991 166.727 35.5133C165.249 36.5044 163.407 37 161.202 37Z" fill="#FCFDFF"/>
<path d="M187.476 36.5851C186.491 36.5851 185.705 36.3085 185.118 35.7553C184.555 35.1791 184.203 34.4184 184.063 33.4734H183.851C183.546 34.6489 182.925 35.5363 181.986 36.1356C181.048 36.7119 179.886 37 178.502 37C176.625 37 175.182 36.516 174.174 35.5479C173.165 34.5798 172.66 33.289 172.66 31.6755C172.66 29.8085 173.341 28.4255 174.701 27.5266C176.062 26.6046 177.998 26.1436 180.508 26.1436H183.64V24.8298C183.64 23.8156 183.37 23.0319 182.831 22.4787C182.291 21.9255 181.423 21.6489 180.227 21.6489C179.171 21.6489 178.315 21.8794 177.658 22.3404C177.024 22.7784 176.485 23.3085 176.039 23.9309L173.364 21.5798C174.045 20.5426 174.948 19.7128 176.074 19.0904C177.2 18.445 178.69 18.1223 180.543 18.1223C183.03 18.1223 184.919 18.6755 186.209 19.7819C187.5 20.8883 188.145 22.4787 188.145 24.5532V33.0585H189.975V36.5851H187.476ZM180.015 33.7846C181.024 33.7846 181.881 33.5656 182.585 33.1277C183.288 32.6897 183.64 32.0443 183.64 31.1915V28.8059H180.755C178.408 28.8059 177.235 29.5434 177.235 31.0186V31.6064C177.235 32.344 177.47 32.8972 177.939 33.266C178.432 33.6117 179.124 33.7846 180.015 33.7846Z" fill="#FCFDFF"/>
<path d="M198.125 36.5851C196.577 36.5851 195.439 36.2048 194.712 35.4441C193.984 34.6835 193.621 33.6117 193.621 32.2287V11H198.125V33.0585H200.553V36.5851H198.125Z" fill="#FCFDFF"/>
<path d="M211.215 37C209.854 37 208.646 36.781 207.59 36.3431C206.534 35.9051 205.643 35.2713 204.915 34.4415C204.212 33.6117 203.672 32.6206 203.297 31.4681C202.921 30.2926 202.733 28.9787 202.733 27.5266C202.733 26.0745 202.921 24.7722 203.297 23.6197C203.672 22.4672 204.212 21.4876 204.915 20.6809C205.643 19.8511 206.534 19.2172 207.59 18.7793C208.646 18.3413 209.854 18.1223 211.215 18.1223C213.068 18.1223 214.593 18.5257 215.79 19.3324C217.01 20.1392 217.89 21.2571 218.429 22.6862L214.734 24.3112C214.523 23.5505 214.124 22.9282 213.538 22.4441C212.974 21.9371 212.2 21.6835 211.215 21.6835C209.948 21.6835 208.998 22.0754 208.364 22.859C207.754 23.6427 207.449 24.6684 207.449 25.9362V29.2207C207.449 30.4885 207.754 31.5142 208.364 32.2979C208.998 33.0585 209.948 33.4388 211.215 33.4388C212.294 33.4388 213.127 33.1738 213.713 32.6436C214.3 32.0904 214.758 31.4105 215.086 30.6037L218.535 32.2287C217.925 33.8191 216.998 35.0177 215.755 35.8245C214.511 36.6082 212.998 37 211.215 37Z" fill="#FCFDFF"/>
<g clip-path="url(#clip0)">
<path d="M44.1272 0H5.27544C2.84103 0 0.860474 1.89253 0.860474 4.21875V41.3438C0.860474 43.67 2.84103 45.5625 5.27544 45.5625H34.3161C34.7065 45.5625 35.0808 45.4143 35.3567 45.1506L48.1111 32.9631C48.3871 32.6993 48.5422 32.3417 48.5422 31.9688V4.21875C48.5422 1.89253 46.5616 0 44.1272 0Z" fill="#6D6D80"/>
<path d="M24.7013 0H5.27544C2.84103 0 0.860474 1.89253 0.860474 4.21875V22.7812H24.7013V0Z" fill="#6D6D80"/>
<path d="M48.5421 22.7812V4.21875C48.5421 1.89253 46.5616 0 44.1272 0H24.7013V22.7812H48.5421Z" fill="#575766"/>
<path d="M24.7013 22.7812V45.5625H34.3161C34.7065 45.5625 35.0808 45.4143 35.3567 45.1506L48.111 32.9631C48.3871 32.6993 48.5421 32.3417 48.5421 31.9688V22.7812H24.7013ZM47.0705 31.9688H47.0715H47.0705Z" fill="#414141"/>
<path d="M0.860474 22.7812V41.3438C0.860474 43.67 2.84103 45.5625 5.27544 45.5625H24.7013V22.7812H0.860474Z" fill="#575766"/>
<path d="M16.2148 9.98438H14.2525V8.10938C14.2525 7.33275 13.5936 6.70312 12.7809 6.70312C11.9681 6.70312 11.3092 7.33275 11.3092 8.10938V9.98438H9.34702C8.53428 9.98438 7.87537 10.614 7.87537 11.3906C7.87537 12.1673 8.53428 12.7969 9.34702 12.7969H11.3092V14.6719C11.3092 15.4485 11.9681 16.0781 12.7809 16.0781C13.5936 16.0781 14.2525 15.4485 14.2525 14.6719V12.7969H16.2148C17.0275 12.7969 17.6864 12.1673 17.6864 11.3906C17.6864 10.614 17.0275 9.98438 16.2148 9.98438Z" fill="#FCFDFF"/>
<path d="M40.0556 12.7969H33.1878C32.3751 12.7969 31.7162 12.1673 31.7162 11.3906C31.7162 10.614 32.3751 9.98438 33.1878 9.98438H40.0556C40.8683 9.98438 41.5272 10.614 41.5272 11.3906C41.5272 12.1673 40.8683 12.7969 40.0556 12.7969Z" fill="#FCFDFF"/>
<path d="M14.8621 34.1719L16.2743 32.8224C16.8491 32.2732 16.8491 31.3829 16.2743 30.8337C15.6997 30.2845 14.7678 30.2845 14.1931 30.8337L12.7809 32.1831L11.3687 30.8337C10.7941 30.2845 9.86222 30.2845 9.28749 30.8337C8.71276 31.3829 8.71276 32.2732 9.28749 32.8224L10.6997 34.1719L9.28749 35.5213C8.71276 36.0705 8.71276 36.9608 9.28749 37.51C9.57486 37.7846 9.9515 37.922 10.3281 37.922C10.7046 37.922 11.0813 37.7847 11.3686 37.51L12.7808 36.1606L14.193 37.51C14.4804 37.7846 14.857 37.922 15.2336 37.922C15.6101 37.922 15.9869 37.7847 16.2741 37.51C16.8489 36.9608 16.8489 36.0705 16.2741 35.5213L14.8621 34.1719Z" fill="#FCFDFF"/>
<path d="M35.886 48C27.5006 48 20.6788 41.4813 20.6788 33.4688C20.6788 25.4562 27.5006 18.9375 35.886 18.9375C44.2713 18.9375 51.0931 25.4562 51.0931 33.4688C51.0931 41.4813 44.2713 48 35.886 48Z" fill="#F1972C"/>
<path d="M39.3197 37.6875H32.452C31.6393 37.6875 30.9803 37.0579 30.9803 36.2812C30.9803 35.5046 31.6393 34.875 32.452 34.875H39.3197C40.1325 34.875 40.7914 35.5046 40.7914 36.2812C40.7914 37.0579 40.1325 37.6875 39.3197 37.6875Z" fill="#FCFDFF"/>
<path d="M39.3197 32.0625H32.452C31.6393 32.0625 30.9803 31.4329 30.9803 30.6562C30.9803 29.8796 31.6393 29.25 32.452 29.25H39.3197C40.1325 29.25 40.7914 29.8796 40.7914 30.6562C40.7914 31.4329 40.1325 32.0625 39.3197 32.0625Z" fill="#FCFDFF"/>
</g>
<defs>
<clipPath id="clip0">
<rect width="50.2326" height="48" fill="white" transform="translate(0.860474)"/>
</clipPath>
</defs>
</svg>
